<svg id="Capa_1" enable-background="new 0 0 497 497" height="512" viewBox="0 0 497 497" width="512" xmlns="http://www.w3.org/2000/svg" xmlns:xlink="http://www.w3.org/1999/xlink"><linearGradient id="lg1"><stop offset="0" stop-color="#ea7d32"/><stop offset="1" stop-color="#f0b160"/></linearGradient><linearGradient id="SVGID_1_" gradientUnits="userSpaceOnUse" x1="25.709" x2="488.942" xlink:href="#lg1" y1="142.48" y2="142.48"/><linearGradient id="SVGID_2_" gradientTransform="matrix(1 0 0 -2.08 0 -404.373)" gradientUnits="userSpaceOnUse" x1="239.737" x2="239.737" y1="-302.174" y2="-490.191"><stop offset="0" stop-color="#c5cccc"/><stop offset="1" stop-color="#e6e6e6"/></linearGradient><linearGradient id="SVGID_3_" gradientUnits="userSpaceOnUse" x1="248.5" x2="248.5" y1="145.628" y2="429.139"><stop offset="0" stop-color="#d4dbdb"/><stop offset="1" stop-color="#f3f3f3"/></linearGradient><linearGradient id="lg2"><stop offset="0" stop-color="#f4c22c"/><stop offset="1" stop-color="#f9e198"/></linearGradient><linearGradient id="SVGID_4_" gradientTransform="matrix(-1 0 0 1 679.474 0)" gradientUnits="userSpaceOnUse" x1="316.136" x2="316.136" xlink:href="#lg2" y1="123.202" y2="14.45"/><linearGradient id="SVGID_5_" gradientUnits="userSpaceOnUse" x1="116.136" x2="116.136" xlink:href="#lg2" y1="123.202" y2="14.45"/><linearGradient id="SVGID_6_" gradientUnits="userSpaceOnUse" x1="291.68" x2="359.396" xlink:href="#lg1" y1="355.175" y2="355.175"/><linearGradient id="SVGID_7_" gradientUnits="userSpaceOnUse" x1="249.78" x2="249.78" xlink:href="#lg2" y1="381.039" y2="185.969"/><g><path d="m451.093 204.072h-422.712v-55.996c0-37.107 30.081-67.189 67.189-67.189h288.334c37.107 0 67.189 30.081 67.189 67.189z" fill="url(#SVGID_1_)"/><path d="m451.093 204.072h-422.712v204.813c0 48.664 39.45 88.114 88.114 88.114h246.483c48.664 0 88.114-39.45 88.114-88.114v-204.813z" fill="url(#SVGID_2_)"/><path d="m316.249 428.795h-185.767c-23.026 0-45.009-10.08-59.656-27.847-22.981-27.875-42.445-64.618-42.445-109.392v110.914c4.673 6.996 9.798 13.897 15.398 20.692 21.279 25.822 52.879 40.633 86.7 40.633h185.771c9.665 0 17.5-7.835 17.5-17.5-.001-9.665-7.836-17.5-17.501-17.5z" fill="#c2c8cf"/><path d="m414.548 428.795c38.68 0 64.969-39.58 49.628-75.087-8.016-18.552-13.083-39.307-13.083-62.152 0-28.306 0-87.483 0-87.483h-422.712v87.483c0 44.751 19.443 81.479 42.409 109.349 14.655 17.785 36.644 27.891 59.689 27.891h284.069z" fill="url(#SVGID_3_)"/><path d="m363.337 126.097c21.892 0 39.639-17.747 39.639-39.638v-46.82c0-21.892-17.747-39.639-39.639-39.639-21.892 0-39.638 17.747-39.638 39.639v46.82c0 21.891 17.747 39.638 39.638 39.638z" fill="url(#SVGID_4_)"/><path d="m116.136 126.097c-21.892 0-39.638-17.747-39.638-39.638v-46.82c0-21.892 17.746-39.639 39.638-39.639 21.892 0 39.638 17.747 39.638 39.639v46.82c.001 21.891-17.746 39.638-39.638 39.638z" fill="url(#SVGID_5_)"/><g><path d="m327.611 394.931c-18.036-4.532-33.593-12.653-43.808-22.868l-26.209-26.208c-7.089-7.088-7.089-18.581-.001-25.67 7.089-7.088 18.582-7.091 25.671 0l26.209 26.208c5.477 5.478 15.564 10.46 26.983 13.329 9.723 2.443 15.624 12.306 13.181 22.028-2.445 9.737-12.322 15.622-22.026 13.181z" fill="url(#SVGID_6_)"/><path d="m310.8 252.838c-9.298-.564-17.696 4.148-22.274 11.552-.975 1.576-3.372 1.089-3.597-.751-.668-5.463-1.384-10.316-1.673-13.221-1.331-13.426-13.295-23.231-26.721-21.9-13.425 1.331-23.231 13.295-21.899 26.722.05.504.105 1.02.164 1.544.253 2.26-2.472 3.582-4.08 1.974l-7.55-7.55c-9.685-9.685-25.77-9.918-35.269-.052-9.208 9.564-9.098 24.783.331 34.212l7.939 7.939c1.608 1.608.286 4.334-1.974 4.08-.523-.059-1.039-.114-1.543-.164-13.426-1.331-25.389 8.473-26.722 21.9-1.332 13.427 8.473 25.39 21.9 26.721 2.581.256 7.724.998 13.229 1.67 1.804.22 2.36 2.606.811 3.557-7.63 4.682-12.423 13.412-11.57 23.015 1.183 13.313 13.151 23.069 26.486 22.162 24.037-1.635 59.567-13.309 81.565-35.308 22.205-22.205 33.891-58.194 35.352-82.237.817-13.466-9.437-25.047-22.905-25.865z" fill="url(#SVGID_7_)"/><path d="m269.837 344.594c-2.943 0-5.886-1.123-8.132-3.368l-35.118-35.118c-4.491-4.491-4.491-11.772 0-16.264 4.491-4.49 11.773-4.49 16.264 0l35.118 35.118c4.491 4.491 4.491 11.772 0 16.264-2.246 2.245-5.189 3.368-8.132 3.368z" fill="#fcb500"/></g><g><ellipse cx="151.851" cy="172.518" fill="#efc5db" rx="14.936" ry="12.003"/><ellipse cx="327.622" cy="172.518" fill="#efc5db" rx="14.936" ry="12.003"/><circle cx="177.458" cy="142.9" fill="#fff" r="29.618"/><circle cx="302.015" cy="142.9" fill="#fff" r="29.618"/><g fill="#3b3b44"><g><circle cx="177.458" cy="142.9" r="17.652"/><circle cx="302.015" cy="142.9" r="17.652"/></g><path d="m239.737 173.46c-5.247 0-10.495-1.984-14.776-5.954-2.025-1.877-2.145-5.041-.267-7.066 1.878-2.024 5.042-2.145 7.066-.267 4.697 4.354 11.257 4.354 15.954 0 2.024-1.877 5.188-1.758 7.066.267 1.877 2.024 1.758 5.189-.267 7.066-4.281 3.97-9.529 5.954-14.776 5.954z"/></g></g><path d="m421.093 193.105c-5.523 0-10-4.478-10-10v-13.236c0-5.522 4.477-10 10-10s10 4.478 10 10v13.236c0 5.522-4.477 10-10 10z" fill="#ffd6a8"/><path d="m421.093 265.412c-5.523 0-10-4.478-10-10v-31.094c0-5.523 4.477-10 10-10s10 4.477 10 10v31.094c0 5.523-4.477 10-10 10z" fill="#fff"/></g></svg>