<svg height="512" viewBox="0 0 58 58" width="512" xmlns="http://www.w3.org/2000/svg"><g id="Page-1" fill="none" fill-rule="evenodd"><g id="022---Fleas" fill-rule="nonzero"><path id="Shape" d="m40.953 21.217 4.147-4.147 2.9-.07-.07 2.9-4.147 4.147z" fill="#7f8c8d"/><path id="Shape" d="m57 46c0 4-4 10-13 10 0 .55-2 2-4 2h-27.94c0-3 3.94-4 3.94-4v-12c-2.5012804-2.7383529-3.9227528-6.2920339-4-10 .0546909-3.533196.9602686-7.0011469 2.64-10.11.1132228-.2455668.1193759-.527126.0169892-.7774047-.1023868-.2502786-.3041162-.4467949-.5569892-.5425953-2.9093031-1.0060442-5.96184694-1.5361873-9.04-1.57-4.79-1.6-5.12-6.39-5.05-8.25.01402515-.4427914.32023067-.82248621.75-.93l5.8-1.44c.96634145-.24517964 1.80730399-.84026753 2.36-1.67l2.35-3.52c.5194647-.78242904 1.2986442-1.35618849 2.2-1.62 2.7870693-.87784446 5.6726007-1.40523494 8.59-1.57 4 0 7 6 7 12 0 2.56-1.1 4.03-2.61 4.72v.02l.29 2.01.22 1.54c.0543272.3961725.3427777.7201853.73.82 1.6804946.5724437 3.1854138 1.5676878 4.37 2.89 2.78 2.77 9.83 14.96 10.87 23.1.0723876.5324811.3585213 1.0125141.7924654 1.3294819.433944.3169679.9782661.4435286 1.5075346.3505181 3.44-.59 9.77-2.77 9.77-10.78 1.1967876 2.5054254 1.8769653 5.2261364 2 8z" fill="#f3d55b"/><path id="Shape" d="m26.74 18.75c-.7910545.3044724-1.6324036.4571365-2.48.45-1.0925587-.0072784-2.1742529-.2175136-3.19-.62-1.1376482-.4604811-1.8843157-1.5627046-1.89-2.79v-6.79c0-.55228475.4477153-1 1-1s1 .44771525 1 1v6.79c-.0003967.4098038.249279.7783727.63.93 1.3988833.6023064 2.9776573.6345995 4.4.09.0765711-.0337927.1572682-.0573294.24-.07z" fill="#f0c419"/><path id="Shape" d="m33.95 40.32c-.1805176.5213514-.7456812.8017081-1.27.63-1.8803297-.7346382-4.00316-.4833491-5.66.67-1.9515995 1.5352968-3.0697011 3.8973791-3.02 6.38 0 4.17 3.21 5.02 3.24 5.03.4892104.1225975.810566.5903014.7495747 1.090938-.0609912.5006367-.4852389.8775057-.9895747.879062-4.31 0-5.58 2.24-5.89 3h-2.05c.000755-.0775913.0108272-.154811.03-.23.7197813-2.2700705 2.622326-3.9654833 4.96-4.42-1.3831352-1.4299108-2.1234522-3.3619576-2.05-5.35-.0461301-3.1237276 1.3800176-6.0871515 3.85-8 2.1816791-1.5273428 4.9754711-1.8826443 7.47-.95.5213514.1805176.8017081.7456812.63 1.27z" fill="#f0c419"/><path id="Shape" d="m39 56c-.0007273.7025888-.1870094 1.3925223-.54 2h-3.46c1.1032019-.0032948 1.9967052-.8967981 2-2 0-.5522847.4477153-1 1-1s1 .4477153 1 1z" fill="#f0c419"/><path id="Shape" d="m4 9.02v2.98c0 .5522847-.44771525 1-1 1h-2.85c-.12144333-.7434703-.16834267-1.4972096-.14-2.25.01402515-.4427914.32023067-.82248621.75-.93z" fill="#3f5c6c"/><circle id="Oval" cx="34" cy="31" fill="#95a5a5" r="12"/><circle id="Oval" cx="34" cy="31" fill="#7f8c8d" r="10"/><path id="Shape" d="m57.12 13.54-7.07 7.07c-.3900375.3877236-1.0199625.3877236-1.41 0l-4.25-4.25c-.3877236-.3900375-.3877236-1.0199625 0-1.41l4.95-4.95 1.41-1.41h.01l.7-.71c1.1751514-1.16986609 3.0748486-1.16986609 4.25 0l1.41 1.41c1.1698661 1.1751514 1.1698661 3.0748486 0 4.25z" fill="#3b97d3"/><path id="Shape" d="m56.41 14.24v.01l-1.41 1.41-1.41-1.42c-.3397768-.3967603-.3169323-.9881942.0524368-1.3575632.369369-.3693691.9608029-.3922136 1.3575632-.0524368z" fill="#2980ba"/><path id="Shape" d="m52.17 11.41c-.1843911.191781-.4389549.3001659-.705.3001659s-.5206089-.1083849-.705-.3001659l-1.42-1.41 1.41-1.41h.01l1.41 1.41c.3877236.3900375.3877236 1.0199625 0 1.41z" fill="#2980ba"/><circle id="Oval" cx="34" cy="31" fill="#9fc9d3" r="8"/><g fill="#35495e"><path id="Shape" d="m32.18 30.18c-.2653486.0007185-.5199469-.1047939-.707-.293l-1.18-1.18c-.3789722-.3923789-.3735524-1.0160848.0121814-1.4018186s1.0094397-.3911536 1.4018186-.0121814l1.18 1.18c.2859079.2859943.3714219.7160366.216678 1.0896546-.1547439.3736179-.5192821.6172591-.923678.6173454z"/><path id="Shape" d="m35.82 30.18c-.4043959-.0000863-.7689341-.2437275-.923678-.6173454-.1547439-.373618-.0692299-.8036603.216678-1.0896546l1.18-1.18c.3923789-.3789722 1.0160848-.3735524 1.4018186.0121814s.3911536 1.0094397.0121814 1.4018186l-1.18 1.18c-.1870531.1882061-.4416514.2937185-.707.293z"/><path id="Shape" d="m32 32h-2c-.5522847 0-1-.4477153-1-1s.4477153-1 1-1h2c.5522847 0 1 .4477153 1 1s-.4477153 1-1 1z"/><path id="Shape" d="m38 32h-2c-.5522847 0-1-.4477153-1-1s.4477153-1 1-1h2c.5522847 0 1 .4477153 1 1s-.4477153 1-1 1z"/><path id="Shape" d="m31 35c-.4043959-.0000863-.7689341-.2437275-.923678-.6173454-.1547439-.373618-.0692299-.8036603.216678-1.0896546l1.18-1.18c.3923789-.3789722 1.0160848-.3735524 1.4018186.0121814s.3911536 1.0094397.0121814 1.4018186l-1.18 1.18c-.1874927.1875494-.4418052.2929434-.707.293z"/><path id="Shape" d="m37 35c-.2651948-.0000566-.5195073-.1054506-.707-.293l-1.18-1.18c-.3789722-.3923789-.3735524-1.0160848.0121814-1.4018186s1.0094397-.3911536 1.4018186-.0121814l1.18 1.18c.2859079.2859943.3714219.7160366.216678 1.0896546-.1547439.3736179-.5192821.6172591-.923678.6173454z"/></g><rect id="Rectangle-path" fill="#e64c3c" height="6" rx="2" width="4" x="32" y="28"/></g></g></svg>