<?xml version="1.0" encoding="utf-8"?>
<!-- Generator: Adobe Illustrator 21.0.0, SVG Export Plug-In . SVG Version: 6.00 Build 0)  -->
<svg version="1.1" id="Capa_1" xmlns="http://www.w3.org/2000/svg" xmlns:xlink="http://www.w3.org/1999/xlink" x="0px" y="0px"
	 viewBox="0 0 512 512" style="enable-background:new 0 0 512 512;" xml:space="preserve">
<style type="text/css">
	.st0{fill:#BA5D4F;}
	.st1{fill:#A34F41;}
	.st2{fill:#FCC16D;}
	.st3{fill:#FCB44D;}
	.st4{fill:#FB6A3B;}
	.st5{fill:#FB5532;}
	.st6{fill:#C86F5C;}
	.st7{fill:#64B9FC;}
	.st8{fill:#31A7FB;}
	.st9{fill:#8DCAFC;}
	.st10{fill:#FFD597;}
	.st11{fill:#FCA62F;}
</style>
<g>
	<g>
		<path class="st0" d="M406.3,137.5L374.8,160c-5,3.6-11,0.2-13.3-7.5L347,103.9c-2.3-7.7-0.1-16.9,4.9-20.5l31.5-22.5
			c5-3.6,11-0.2,13.3,7.5l14.6,48.6C413.5,124.8,411.4,133.9,406.3,137.5L406.3,137.5z"/>
		<path class="st1" d="M396.6,68.5l14.6,48.6c2.3,7.7,0.1,16.9-4.9,20.5l-24.8,17.7c5-3.6,7.2-12.7,4.9-20.5l-14.6-48.6
			c-2.3-7.7-8.3-11.1-13.3-7.5l24.8-17.7C388.4,57.4,394.3,60.7,396.6,68.5z"/>
	</g>
	<g>
		<ellipse class="st2" cx="339.7" cy="73.3" rx="33.2" ry="51.2"/>
		<path class="st3" d="M373,73.3c0,28.3-14.9,51.2-33.2,51.2c-9.8,0-18.5-6.5-24.6-16.8c0.4,0,0.9,0,1.3,0
			c18.4,0,33.2-22.9,33.2-51.2c0-13.3-3.3-25.3-8.6-34.4C358.8,23.2,373,45.7,373,73.3z"/>
	</g>
	<g>
		<ellipse class="st4" cx="216.1" cy="107.6" rx="38.6" ry="59.4"/>
		<path class="st5" d="M254.6,107.6c0,32.8-17.3,59.4-38.6,59.4c-11.3,0-21.5-7.5-28.5-19.5c0.5,0,1,0,1.5,0
			c21.3,0,38.6-26.6,38.6-59.4c0-15.4-3.8-29.4-10-40C238.2,49.4,254.6,75.5,254.6,107.6z"/>
	</g>
	<g>
		<path class="st6" d="M290.9,115.8l-31.1,23.9c-4.9,3.8-10.9,0.7-13.4-6.9l-15.5-47.9c-2.5-7.6-0.4-16.9,4.5-20.7l31.1-23.9
			c4.9-3.8,10.9-0.7,13.4,6.9l15.5,47.9C297.8,102.8,295.8,112,290.9,115.8L290.9,115.8z"/>
		<path class="st0" d="M279.9,47.2l15.5,47.9c2.5,7.6,0.4,16.9-4.5,20.7l-24.5,18.8c4.9-3.8,7-13.1,4.5-20.7L255.4,66
			c-2.5-7.6-8.5-10.7-13.4-6.9l24.5-18.8C271.4,36.5,277.4,39.6,279.9,47.2z"/>
	</g>
	<g>
		<path class="st6" d="M233.5,219.8h-34.7c-5.5,0-10-6.9-10-15.4v-53.6c0-8.5,4.5-15.4,10-15.4h34.7c5.5,0,10,6.9,10,15.4v53.6
			C243.5,212.9,239,219.8,233.5,219.8z"/>
		<path class="st0" d="M243.5,150.8v53.6c0,8.5-4.5,15.4-10,15.4h-27.4c5.5,0,10-6.9,10-15.4v-53.6c0-8.5-4.5-15.4-10-15.4h27.4
			C239,135.4,243.5,142.3,243.5,150.8z"/>
	</g>
	<g>
		<ellipse class="st2" cx="267.3" cy="168.6" rx="33.2" ry="51.2"/>
		<path class="st3" d="M300.5,168.6c0,28.3-14.9,51.2-33.2,51.2c-9.8,0-18.5-6.5-24.6-16.8c0.4,0,0.9,0,1.3,0
			c18.3,0,33.2-22.9,33.2-51.2c0-13.3-3.3-25.3-8.6-34.4C286.3,118.4,300.5,140.9,300.5,168.6L300.5,168.6z"/>
	</g>
	<g>
		<path class="st6" d="M326.1,164.7l-37.7-8.8c-6-1.4-10.1-10-9.2-19.3l5.7-58.1c0.9-9.2,6.5-15.6,12.5-14.2l37.7,8.8
			c6,1.4,10.1,10,9.2,19.3l-5.7,58.1C337.7,159.8,332.1,166.1,326.1,164.7z"/>
		<path class="st0" d="M344.4,92.4l-5.7,58.1c-0.9,9.2-6.5,15.6-12.5,14.2l-29.7-6.9c6,1.4,11.6-5,12.5-14.2l5.7-58.1
			c0.9-9.3-3.2-17.9-9.2-19.3l29.7,6.9C341.1,74.5,345.3,83.1,344.4,92.4z"/>
	</g>
	<g>
		<path class="st6" d="M419.9,224.9h-34.7c-5.5,0-10-6.9-10-15.4V156c0-8.5,4.5-15.4,10-15.4h34.7c5.5,0,10,6.9,10,15.4v53.6
			C429.9,218,425.4,224.9,419.9,224.9z"/>
		<path class="st0" d="M429.9,156v53.6c0,8.5-4.5,15.4-10,15.4h-27.4c5.5,0,10-6.9,10-15.4V156c0-8.5-4.5-15.4-10-15.4h27.4
			C425.4,140.6,429.9,147.5,429.9,156z"/>
	</g>
	<g>
		<path class="st0" d="M330.7,217.9l-30.8,24.8c-4.9,3.9-10.9,1-13.5-6.5l-16.1-47.5c-2.6-7.5-0.7-16.9,4.2-20.8l30.8-24.8
			c4.9-3.9,10.9-1,13.5,6.5l16.1,47.5C337.5,204.6,335.6,213.9,330.7,217.9z"/>
		<path class="st1" d="M318.9,149.6l16.1,47.5c2.6,7.5,0.6,16.9-4.2,20.8l-24.3,19.5c4.9-3.9,6.8-13.3,4.2-20.8l-16.1-47.5
			c-2.6-7.6-8.6-10.5-13.5-6.5l24.3-19.5C310.3,139.1,316.3,142,318.9,149.6z"/>
	</g>
	<g>
		<path class="st0" d="M147.7,214.6l-29.5,28.2c-4.7,4.5-10.9,2.3-13.8-5l-18.3-45.5c-2.9-7.2-1.5-16.7,3.2-21.2l29.5-28.2
			c4.7-4.5,10.9-2.3,13.8,5l18.3,45.5C153.8,200.6,152.4,210.1,147.7,214.6L147.7,214.6z"/>
		<path class="st1" d="M132.6,147.9l18.3,45.5c2.9,7.2,1.5,16.7-3.2,21.2l-23.3,22.2c4.7-4.5,6.1-14,3.2-21.2l-18.3-45.5
			c-2.9-7.2-9.1-9.5-13.8-5l23.3-22.2C123.5,138.4,129.7,140.6,132.6,147.9z"/>
	</g>
	<g>
		<ellipse class="st2" cx="162" cy="132.4" rx="33.2" ry="51.2"/>
		<path class="st3" d="M190.1,105.1c9.8,23.9,5.1,55.6-10.4,70.6c-8.3,8-17.9,9.7-26.6,6c0.4-0.3,0.7-0.7,1.1-1
			c15.5-15.1,20.2-46.7,10.4-70.6c-4.6-11.2-11.5-18.8-19.2-22C160.8,74.4,180.6,81.8,190.1,105.1L190.1,105.1z"/>
	</g>
	<g>
		<ellipse class="st2" cx="354.9" cy="164.9" rx="33.2" ry="51.2"/>
		<path class="st3" d="M388.1,164.9c0,28.3-14.9,51.2-33.2,51.2c-9.8,0-18.5-6.5-24.6-16.8c0.4,0,0.9,0,1.3,0
			c18.4,0,33.2-22.9,33.2-51.2c0-13.3-3.3-25.3-8.6-34.4C373.9,114.8,388.1,137.3,388.1,164.9z"/>
	</g>
	<g>
		<path class="st6" d="M175.9,255.1l-37.5-19.8c-6-3.2-9.1-13.2-7.1-22.4l12.9-57.9c2-9.2,8.5-14.1,14.5-11l37.5,19.8
			c6,3.2,9.1,13.2,7.1,22.4l-12.9,57.9C188.3,253.4,181.8,258.3,175.9,255.1z"/>
		<path class="st0" d="M203.3,186.3l-12.9,57.9c-2,9.2-8.5,14.1-14.5,11l-29.6-15.6c6,3.2,12.5-1.8,14.5-11l12.9-57.9
			c2-9.2-1.1-19.2-7.1-22.4l29.6,15.6C202.1,167.1,205.3,177.1,203.3,186.3L203.3,186.3z"/>
	</g>
	<g>
		<path class="st7" d="M496.4,383.8H15.6l37.9-159.4c2.7-11.4,10.4-19,19-19h367c8.6,0,16.3,7.7,19,19L496.4,383.8z"/>
		<path class="st8" d="M496.4,383.8h-38.9l-37.9-159.4c-2.7-11.4-10.4-19-19-19h38.9c8.6,0,16.3,7.7,19,19L496.4,383.8z"/>
	</g>
	<path class="st9" d="M502,430.1H10c-5.5,0-10-6.2-10-13.8v-38.1c0-7.6,4.5-13.8,10-13.8h492c5.5,0,10,6.2,10,13.8v38.1
		C512,423.9,507.5,430.1,502,430.1z"/>
	<path class="st7" d="M512,378.2v38.1c0,7.6-4.5,13.8-10,13.8h-38.9c5.5,0,10-6.2,10-13.8v-38.1c0-7.6-4.5-13.8-10-13.8H502
		C507.5,364.3,512,370.5,512,378.2z"/>
	<g>
		<g>
			<path class="st10" d="M318.9,319.1H193.1c-5.5,0-10-6.2-10-13.8v-40.1c0-7.6,4.5-13.8,10-13.8h125.8c5.5,0,10,6.2,10,13.8v40.1
				C328.9,312.9,324.4,319.1,318.9,319.1z"/>
			<path class="st2" d="M328.9,265.1v40.1c0,7.7-4.5,13.8-10,13.8h-32.7c5.5,0,10-6.2,10-13.8v-40.1c0-7.6-4.5-13.8-10-13.8h32.7
				C324.5,251.3,328.9,257.5,328.9,265.1z"/>
		</g>
		<g>
			<g id="XMLID_201_">
				<path class="st11" d="M205.5,295.9C205.5,295.9,205.5,295.9,205.5,295.9h-0.1c-4.3,0-7.7-4.8-7.7-10.7c0-5.9,3.5-10.6,7.7-10.6
					h0l0.1,0c4.3,0,7.7,4.8,7.7,10.7C213.2,291.1,209.7,295.9,205.5,295.9z"/>
			</g>
			<g id="XMLID_202_">
				<path class="st11" d="M306.6,295.9C306.6,295.9,306.6,295.9,306.6,295.9h-0.1c-4.3,0-7.7-4.8-7.7-10.7c0-5.9,3.5-10.6,7.7-10.6
					h0l0.1,0c4.3,0,7.7,4.8,7.7,10.7C314.3,291.1,310.9,295.9,306.6,295.9z"/>
			</g>
		</g>
	</g>
</g>
</svg>
