<?xml version="1.0" encoding="utf-8"?>
<!-- Generator: Adobe Illustrator 25.0.0, SVG Export Plug-In . SVG Version: 6.00 Build 0)  -->
<svg version="1.1" id="Capa_1" xmlns="http://www.w3.org/2000/svg" xmlns:xlink="http://www.w3.org/1999/xlink" x="0px" y="0px"
	 viewBox="0 0 512 512" style="enable-background:new 0 0 512 512;" xml:space="preserve">
<style type="text/css">
	.st0{fill:#CAE505;}
	.st1{fill:#8EA900;}
	.st2{fill:#3BEAE1;}
	.st3{fill:#2FBAB7;}
	.st4{fill:#45515D;}
</style>
<g>
	<path class="st0" d="M406,31h-60h-60c-57.9,0-106,47.1-106,105c0,52.8,40.2,96.6,91,103.9V286c0,6.1,3.6,11.5,9.3,13.9
		c5.5,2.3,12,1.1,16.3-3.3l49.4-49.4l6.2-6.2H406c57.9,0,106-47.1,106-105S463.9,31,406,31L406,31z"/>
	<path class="st1" d="M406,241c57.9,0,106-47.1,106-105S463.9,31,406,31h-60v216.2l6.2-6.2H406z"/>
	<path class="st2" d="M382,376v60c0,26.1-21.3,45-44.8,45c-86.4,0-170.7-40.9-233.4-103.3S0,231.2,0,144.8C0,120,20.2,100,45,100h60
		c6.5,0,12.2,4.1,14.2,10.2l30,89.8c1.5,4.4,0.8,9.2-1.7,13.1L122,251.3c9.6,20.2,26.7,42.3,46.4,61.8
		c19.7,19.5,42.1,36.3,62.3,45.9l38.2-25.4c3.9-2.5,8.7-3.2,13.1-1.7l90,30C378.1,363.8,382,369.5,382,376L382,376z"/>
	<path class="st3" d="M382,376v60c0,26.1-21.3,45-44.8,45c-86.4,0-170.7-40.9-233.4-103.3l64.6-64.6c19.7,19.5,42.1,36.3,62.3,45.9
		l38.2-25.4c3.9-2.5,8.7-3.2,13.1-1.7l90,30C378.1,363.8,382,369.5,382,376z"/>
	<circle class="st4" cx="286" cy="136" r="15"/>
	<circle class="st4" cx="346" cy="136" r="15"/>
	<g>
		<path class="st4" d="M361,136c0-8.3-6.7-15-15-15v30C354.3,151,361,144.3,361,136z"/>
		<circle class="st4" cx="406" cy="136" r="15"/>
	</g>
</g>
</svg>
