<svg id="Capa_1" enable-background="new 0 0 512 512" height="512" viewBox="0 0 512 512" width="512" xmlns="http://www.w3.org/2000/svg"><g><path d="m434.279 386.831v-261.663c0-4.48 3.297-8.343 7.789-8.985 28.369-4.05 50.225-27.963 50.611-57.001.424-31.873-25.594-58.497-57.875-59.17-13.434-.28-25.873 3.867-35.931 11.059-3.208 2.294-7.547 2.294-10.755 0-10.059-7.191-22.498-11.338-35.932-11.058-32.281.672-58.299 27.297-57.875 59.17.386 29.038 22.242 52.951 50.611 57.001 4.492.641 7.789 4.504 7.789 8.985v261.663c0 4.48-3.297 8.343-7.789 8.985-28.369 4.05-50.225 27.963-50.611 57.001-.424 31.873 25.594 58.497 57.875 59.17 13.434.28 25.873-3.867 35.931-11.059 3.208-2.294 7.546-2.294 10.755 0 10.058 7.192 22.497 11.339 35.931 11.059 32.281-.672 58.299-27.297 57.875-59.17-.386-29.038-22.241-52.951-50.611-57.001-4.49-.642-7.788-4.505-7.788-8.986z" fill="#f9f3f1"/><g><path d="m442.068 395.816c-4.492-.641-7.789-4.504-7.789-8.984v-261.663c0-4.48 3.297-8.343 7.789-8.985 28.369-4.05 50.225-27.963 50.611-57.001.424-31.873-25.594-58.497-57.876-59.17-5.819-.121-11.449.591-16.782 2.018 25.409 6.825 44.111 30.092 43.752 57.152-.386 29.038-22.242 52.951-50.611 57.001-4.492.641-7.789 4.504-7.789 8.985v261.663c0 4.48 3.297 8.343 7.789 8.984 28.369 4.05 50.225 27.963 50.611 57.001.359 27.06-18.343 50.327-43.752 57.151 5.332 1.428 10.963 2.14 16.782 2.018 32.281-.672 58.299-27.297 57.876-59.17-.386-29.037-22.241-52.95-50.611-57z" fill="#f3eae6"/></g><g><circle cx="195.148" cy="336.168" fill="#fec0b7" r="175.832"/><path d="m257.857 171.861c49.395 31.13 82.218 86.155 82.218 148.854 0 97.11-78.723 175.832-175.832 175.832-22.094 0-43.229-4.087-62.709-11.525 27.109 17.084 59.204 26.978 93.614 26.978 97.11 0 175.833-78.723 175.833-175.832 0-75.017-46.983-139.049-113.124-164.307z" fill="#feb2a7"/><path d="m195.148 395.571c60.788 0 117.939-23.672 160.922-66.656 4.756-4.756 9.261-9.695 13.538-14.784-2.781-22.242-9.715-43.193-20.004-62.051-29.821 54.66-87.806 91.745-154.457 91.745s-124.635-37.085-154.455-91.745c-10.289 18.859-17.223 39.809-20.004 62.052 4.277 5.089 8.782 10.027 13.538 14.783 42.984 42.984 100.134 66.656 160.922 66.656z" fill="#fff5c6"/><path d="m356.071 328.915c4.755-4.755 9.259-9.693 13.535-14.78-2.727-20.297-8.237-40.438-20.001-62.054-4.504 8.256-9.661 16.102-15.383 23.489 5.626 21.02 7.507 46.127 4.2 69.261 6.109-4.969 12.004-10.271 17.649-15.916z" fill="#fee97d"/></g><g><path d="m102.98 334.945c9.808-.543 19.274.549 28.194 2.971v-64.925c0-5.69 4.612-10.302 10.302-10.302h44.729c5.69 0 10.302 4.612 10.302 10.302v145.769h-.122c.079 1.538.122 3.087.122 4.645 0 48.93-39.665 88.596-88.596 88.596-50.109 0-90.501-41.599-88.526-92.147 1.774-45.384 38.247-82.4 83.595-84.909z" fill="#9e9797"/><g fill="#766e6e"><path d="m196.507 272.991c0-5.69-4.612-10.302-10.302-10.302h-20.604v140.617h-.122c.079 1.538.122 3.087.122 4.645 0 48.93-39.665 88.596-88.596 88.596-8.093 0-15.93-1.091-23.378-3.124 14.996 11.643 33.83 18.577 54.284 18.577 48.93 0 88.596-39.665 88.596-88.596 0-1.558-.042-3.106-.122-4.645h.122z"/><circle cx="106.005" cy="423.01" r="39.928"/></g></g></g></svg>